<svg width="18" height="18" viewBox="0 0 18 18" fill="none" xmlns="http://www.w3.org/2000/svg">
<path d="M6.99737 15.8393C6.29504 16.2923 5.45811 16.4898 4.62731 16.3985C3.79652 16.3071 3.02252 15.9324 2.43548 15.3375L1.92227 14.8356C1.69727 14.6055 1.57129 14.2964 1.57129 13.9746C1.57129 13.6528 1.69727 13.3436 1.92227 13.1136L4.10057 10.9581C4.32879 10.7338 4.63595 10.6081 4.95593 10.6081C5.27589 10.6081 5.58307 10.7338 5.81128 10.9581C6.04142 11.1831 6.35049 11.309 6.67234 11.309C6.99419 11.309 7.30325 11.1831 7.53339 10.9581L10.9548 7.53663C11.0689 7.42415 11.1596 7.29011 11.2214 7.14229C11.2833 6.99447 11.3152 6.83582 11.3152 6.67558C11.3152 6.51533 11.2833 6.35669 11.2214 6.20886C11.1596 6.06105 11.0689 5.927 10.9548 5.81452C10.7305 5.58631 10.6049 5.27914 10.6049 4.95917C10.6049 4.63919 10.7305 4.33203 10.9548 4.10381L13.1217 1.93691C13.3519 1.71192 13.6609 1.58594 13.9827 1.58594C14.3047 1.58594 14.6137 1.71192 14.8439 1.93691L15.3457 2.45013C15.9405 3.03717 16.3152 3.81117 16.4066 4.64196C16.498 5.47276 16.3005 6.30969 15.8474 7.01202C13.4866 10.4913 10.4827 13.4874 6.99737 15.8393Z" stroke="#201F1D" stroke-width="1.2" stroke-linecap="round" stroke-linejoin="round"/>
</svg>
